<?xml version="1.0" encoding="UTF-8"?>
<svg version="1.1" xmlns="http://www.w3.org/2000/svg" width="200" height="200">
<path d="M0 0 C1.97057373 0.01244751 1.97057373 0.01244751 3.98095703 0.02514648 C30.59980382 0.48715365 53.72465336 11.42026424 72.78515625 29.96484375 C93.59923235 51.87270437 101.3259087 77.92093334 100.56640625 107.703125 C99.39330765 134.01877886 86.9919655 157.51873836 68 175.5625 C45.23573474 195.51284914 19.2625523 201.99062034 -10.57226562 200.66064453 C-36.59469448 198.86856346 -60.41425814 184.82168643 -77.40234375 165.4375 C-96.90317515 141.16417988 -102.83576073 113.4659566 -99.51513672 82.68066406 C-95.75301202 57.8800089 -80.30897188 34.28520597 -60.48828125 19.26953125 C-42.03201568 6.63305161 -22.55749858 -0.18513651 0 0 Z M-58.8125 42.4375 C-59.97265625 43.57832031 -59.97265625 43.57832031 -61.15625 44.7421875 C-76.33277658 60.59438136 -83.4660306 81.95239324 -83.05859375 103.73828125 C-81.61349777 125.46059695 -73.11131162 143.88623274 -57.8125 159.4375 C-56.67167969 160.59765625 -56.67167969 160.59765625 -55.5078125 161.78125 C-39.65561864 176.95777658 -18.29760676 184.0910306 3.48828125 183.68359375 C25.21059695 182.23849777 43.63623274 173.73631162 59.1875 158.4375 C59.9609375 157.67695313 60.734375 156.91640625 61.53125 156.1328125 C76.70777658 140.28061864 83.8410306 118.92260676 83.43359375 97.13671875 C81.98849777 75.41440305 73.48631162 56.98876726 58.1875 41.4375 C57.42695313 40.6640625 56.66640625 39.890625 55.8828125 39.09375 C40.03061864 23.91722342 18.67260676 16.7839694 -3.11328125 17.19140625 C-24.83559695 18.63650223 -43.26123274 27.13868838 -58.8125 42.4375 Z " fill="#0F0F0F" transform="translate(99.8125,-0.4375)"/>
<path d="M0 0 C3.58569189 4.26025302 3.16633608 8.21209452 2.73828125 13.46484375 C0.94810795 34.14772741 0.94810795 34.14772741 8.8828125 52.39453125 C13.32207102 57.22749076 18.43742817 61.35367945 23.76928711 65.16113281 C26.98566449 67.81252325 27.8533686 69.85138736 28.375 73.9375 C27.90977662 77.7368243 26.63608379 79.28638434 24 82 C21.13391871 83.43304064 19.18699217 83.30644155 16 83 C11.59235903 80.39308756 8.06902439 77.32577757 4.453125 73.71875 C3.707211 72.97570618 3.707211 72.97570618 2.94622803 72.21765137 C1.90521702 71.17799163 0.86668819 70.13584099 -0.16943359 69.09130859 C-1.75269106 67.49729065 -3.34640673 65.91429037 -4.94140625 64.33203125 C-5.95637142 63.31574518 -6.9707164 62.29883927 -7.984375 61.28125 C-8.89928711 60.36408203 -9.81419922 59.44691406 -10.75683594 58.50195312 C-14.07125846 54.80515273 -15.24488513 52.18070118 -15.29052734 47.21899414 C-15.30328705 46.27443863 -15.31604675 45.32988312 -15.32919312 44.35670471 C-15.33141876 43.34309372 -15.33364441 42.32948273 -15.3359375 41.28515625 C-15.3425943 40.23726425 -15.3492511 39.18937225 -15.35610962 38.10972595 C-15.36622893 35.89486444 -15.37092686 33.67997249 -15.37060547 31.46508789 C-15.37497943 28.07842784 -15.41131004 24.69307021 -15.44921875 21.30664062 C-15.45508687 19.15365029 -15.4590563 17.00065376 -15.4609375 14.84765625 C-15.47530853 13.83606949 -15.48967957 12.82448273 -15.50448608 11.78224182 C-15.4755592 7.32700454 -15.45553103 4.74182003 -13.08447266 0.88061523 C-8.69332063 -3.08109056 -5.36826905 -2.14730762 0 0 Z " fill="#101010" transform="translate(106,51)"/>
</svg>
